<svg version="1.2" baseProfile="tiny" xmlns="http://www.w3.org/2000/svg" xmlns:xlink="http://www.w3.org/1999/xlink" viewBox="0 0 45 36" xml:space="preserve">
<path fill="#FFF" d="M44.8,17.9L40.1,2.8c-0.7-2.1-2.9-3.3-5-2.6L8.6,8.5c-1,0.3-1.8,1-2.3,2C6,11,5.9,11.6,5.9,12.2H4
c-2.2,0-4,1.8-4,4h2.3c0-0.9,0.8-1.7,1.7-1.7h27.8c0.9,0,1.7,0.8,1.7,1.7V32c0,0.9-0.8,1.7-1.7,1.7H4c-0.9,0-1.7-0.8-1.7-1.7v-8.1H0
V32c0,2.2,1.8,4,4,4h27.8c2.2,0,4-1.8,4-4v-7l6.5-2.1C44.3,22.2,45.5,20,44.8,17.9z M42.5,19.9c-0.2,0.4-0.6,0.7-1,0.8l-5.8,1.8
v-6.4c0-2.2-1.8-4-4-4H8c0-0.2,0.1-0.5,0.2-0.7c0.2-0.4,0.6-0.7,1-0.8l26.5-8.3c0.9-0.3,1.9,0.2,2.1,1.1l4.7,15.1
C42.8,19,42.7,19.5,42.5,19.9z"/>
<path fill="#FFF" d="M21.8,16.9c-1.5,0-2.8,1.3-2.8,2.8s1.3,2.8,2.8,2.8c1.5,0,2.8-1.3,2.8-2.8C24.8,18.2,23.5,16.9,21.8,16.9z
M21.8,20.8c-0.6,0-1.1-0.5-1.1-1.1s0.5-1.1,1.1-1.1c0.6,0,1.1,0.5,1.1,1.1C23,20.4,22.4,20.8,21.8,20.8z"/>
<path fill="#FFF" d="M31.1,19.8c0-1.5-1.3-2.8-2.8-2.8c-1.5,0-2.8,1.3-2.8,2.8s1.3,2.8,2.8,2.8C29.8,22.6,31.1,21.3,31.1,19.8z
M27.2,19.8c0-0.6,0.5-1.1,1.1-1.1c0.6,0,1.1,0.5,1.1,1.1s-0.5,1.1-1.1,1.1C27.7,20.9,27.2,20.4,27.2,19.8z"/>
<path fill="#FFF" d="M20.6,25.5l-1.3,1.6c0.1,0,1.4,1.1,3.4,1.6c0.7,0.2,1.4,0.3,2.3,0.3c1.6,0,3.6-0.4,5.7-1.9l-1.2-1.7
C24.8,28.8,20.8,25.7,20.6,25.5z"/>
</svg>