<svg version="1.1" xmlns="http://www.w3.org/2000/svg" xmlns:xlink="http://www.w3.org/1999/xlink" viewBox="-7 -1 45 42" xml:space="preserve">
<path d="M32.2,22.7L37.9,8c0.4-0.9-0.3-1.9-1.4-1.9H2.9L1.1,0C0.9-0.6,0.3-1-0.3-1h-5.2C-6.3-1-7-0.4-7,0.4
s0.7,1.4,1.5,1.4h4.1l8,26.9c0.2,0.6,0.8,1,1.4,1h24.7c0.8,0,1.5-0.6,1.5-1.4s-0.7-1.4-1.5-1.4H9.1l-1-3.2h22.6
C31.4,23.6,31.9,23.2,32.2,22.7z M7.3,20.8L3.7,8.9h30.6l-4.6,11.8L7.3,20.8L7.3,20.8z"/>
<path d="M12,41c-2.9,0-5.2-2.2-5.2-5s2.3-5,5.2-5s5.2,2.2,5.2,5S14.9,41,12,41z M12,33c-1.8,0-3.2,1.3-3.2,3
s1.4,3,3.2,3s3.2-1.3,3.2-3S13.8,33,12,33z"/>
<path d="M26.8,41c-2.9,0-5.2-2.2-5.2-5s2.3-5,5.2-5s5.2,2.2,5.2,5S29.7,41,26.8,41z M26.8,33c-1.8,0-3.2,1.3-3.2,3
s1.4,3,3.2,3s3.2-1.3,3.2-3S28.6,33,26.8,33z"/>
</svg>
