<svg version="1.2" baseProfile="tiny" xmlns="http://www.w3.org/2000/svg" xmlns:xlink="http://www.w3.org/1999/xlink" viewBox="0 0 45 38" xml:space="preserve">
<path fill="#FFF" d="M10.4,22.7h-3c-0.6,0-1,0.5-1.1,1L5.5,34.8l-3.2,0.1l1-11c0.1-0.6-0.4-1.2-1-1.2c-0.6-0.1-1.1,0.4-1.2,1
L0,36c0,0.3,0.1,0.6,0.3,0.9c0.2,0.2,0.5,0.4,0.8,0.4l0,0l8.4-0.2c0.6,0,1-0.5,1.1-1l0.8-12c0-0.3-0.1-0.6-0.3-0.8
C10.9,22.9,10.7,22.7,10.4,22.7z M8.5,34.8H7.7L8.4,25h0.8L8.5,34.8z"/>
<path fill="#FFF" d="M44.9,28.3c-0.2-0.8-0.7-1.3-1.3-1.6c-1.7-0.7-4.1,0.6-4.7,0.9c-0.4,0.2-4.2,1.9-8,1.9
c3.3-2,3.5-2.6,3.5-2.9c0.2-0.8-0.1-2.4-1.1-3c-1.7-1-5-1-7.5-1c-0.9,0-1.6,0-2.1-0.1c-2.4-0.2-9.5,0.3-9.8,0.3L13,22.9l-0.8,14.2
l1.6-0.6c1-0.4,2.7-1,3.4-1c0.4,0,2.6,0.5,4.5,0.9c3,0.6,6.3,1.3,8.3,1.5c0.5,0.1,1,0.1,1.5,0.1c2.6,0,4.8-1,11.2-5.2
C42.9,32.6,45.5,30.7,44.9,28.3z M41.4,30.9c-7.4,4.9-8.6,5-11.3,4.8c-1.9-0.2-5.3-0.9-8.1-1.5s-4.3-0.9-4.9-0.9
c-0.7,0-1.7,0.3-2.6,0.5L15,25c2-0.1,6.7-0.4,8.5-0.3c0.6,0.1,1.3,0.1,2.3,0.1c2.1,0,5.2,0.1,6.5,0.7c0,0.1,0.1,0.2,0.1,0.3
c-0.9,0.8-4,2.7-5,3c-0.5-0.2-1-0.5-1.4-0.8l-1.3,1.8c0.7,0.5,1.4,0.9,2.2,1.2l0,0c0.1,0,0.1,0,0.2,0.1c5.5,2,12.6-1.3,12.9-1.5h0.1
c1-0.5,2.4-1,2.9-0.8c0,0,0.1,0,0.1,0.1C43,29.5,41.9,30.5,41.4,30.9z"/>
<path fill="#FFF" d="M30.7,20.7c3.5,0,6.5-2.6,7.2-6c2.8-1.1,4.8-3.9,4.8-7.1c0-4.2-3.3-7.6-7.4-7.6c-3.5,0-6.5,2.6-7.2,6
c-0.6,0.2-1.3,0.6-1.8,1l0.6,0.9l0.6,0.9c0.9-0.7,2-1.1,3.1-1.1c2.9,0,5.2,2.4,5.2,5.4s-2.3,5.4-5.2,5.4s-5.2-2.4-5.2-5.4h-1.1h-1.1
C23.3,17.3,26.7,20.7,30.7,20.7z M30.7,5.5c-0.1,0-0.1,0-0.2,0c0.8-1.9,2.7-3.3,4.8-3.3c2.9,0,5.2,2.4,5.2,5.4c0,1.9-1,3.6-2.5,4.6
C37.6,8.4,34.5,5.5,30.7,5.5z"/>
</svg>