<svg version="1.2" baseProfile="tiny" xmlns="http://www.w3.org/2000/svg" xmlns:xlink="http://www.w3.org/1999/xlink" viewBox="-14 6 30 30" xml:space="preserve">
<path d="M11.7,11.9c-0.2-1-1-1.7-2-1.9H9.6H-7.9c-0.1,0-0.2,0-0.3,0.1c-1,0.2-1.7,1-1.8,2v0.1v17.7c0,0.1,0,0.2,0.1,0.3
c0.2,1,1.1,1.7,2,1.8h0.1H9.7c0.1,0,0.2,0,0.4-0.1c0.9-0.2,1.6-1,1.8-1.8c0-0.1,0-0.2,0.1-0.3V12.2C11.8,12.1,11.8,12,11.7,11.9z
 M6.5,11.8c0.7,0,1.3,0,2.1,0c0.5,0,0.9,0.4,0.9,0.9c0,0.7,0,1.4,0,2.1c0,0.5-0.4,0.9-0.9,0.9c-0.4,0-0.8,0-1.1,0l0,0
c-0.3,0-0.7,0-1,0c-0.4,0-0.8-0.2-0.9-0.6c0-0.1-0.1-0.2-0.1-0.3c0-0.7,0-1.4,0-2C5.6,12.2,5.9,11.8,6.5,11.8z M0.9,16.6
c2.5,0,4.5,2,4.4,4.5c-0.1,2.4-2,4.4-4.5,4.3c-2.4-0.1-4.3-2-4.3-4.5C-3.6,18.5-1.5,16.6,0.9,16.6z M9.4,19c0,3.3,0,6.5,0,9.7
c0,0.5-0.4,0.9-0.9,0.9c-5.2,0-10.3,0-15.4,0c-0.5,0-0.9-0.4-0.9-0.9c0-3.3,0-6.5,0-9.7v-0.1c0.7,0,1.3,0,2.1,0
C-6.2,20.7-6,22.5-5,24.3c0.6,1.2,1.5,2,2.7,2.7c2.2,1.3,5,1.2,7.1-0.3c0.8-0.6,1.4-1.3,2-2.1c0.6-0.9,0.9-1.7,1-2.7
c0.1-1,0-1.9-0.3-2.9H9.4L9.4,19z"/>
</svg>