<?xml version="1.0" encoding="utf-8"?>
<svg version="1.1" id="Layer_1" xmlns="http://www.w3.org/2000/svg" xmlns:xlink="http://www.w3.org/1999/xlink" x="0px" y="0px"
	 viewBox="0 0 491.5 236.2" style="enable-background:new 0 0 491.5 236.2;" xml:space="preserve">
<style type="text/css">
	.st0{fill:#D60510;}
</style>
<g>
<path class="st0" d="M49.7,195l-0.7,5.6c-0.3,2.7,1.8,5.1,4.6,5.1h180.8c2.8,0,5-2.4,4.7-5.1l-0.7-5.6c-0.4-4.3,2.7-8.3,7-8.7
	c4.4-0.5,8.2,2.7,8.6,7l0.7,5.4c1.4,12.1-5.4,22.7-17.7,22.7H51c-12.2,0-19.1-10.6-17.7-22.7l0.7-5.4c0.5-4.3,4.3-7.5,8.6-7
	C47,186.7,50.1,190.6,49.7,195"/>
<path d="M216.8,153c8.8,0,15.8-6.4,15.6-14.8c-0.2-8.6-8-14.2-16.8-14.2H198c-3.9,0-7.1-3.3-7.1-7.3c0-4.1,3.2-7.4,7.1-7.4h11.8
	c8-0.3,14.1-5.1,14.5-12.7c0.4-8.1-6.5-14.1-15-14.1h-28.7l-0.1,70.6H216.8z M238.6,96.5c0,7.4-2.6,11.5-6.9,16.7l-0.4,0.5
	l0.6,0.4c8.6,5.2,14.5,13.1,15,24.1c0.7,16.5-13.3,30.1-29.9,30.1h-43.7c-4.3,0-7.7-3.5-7.7-7.9V75.7c0-4.4,3.4-7.9,7.7-7.9
	l36.1,0.1C225,67.9,238.6,79.4,238.6,96.5"/>
<path d="M97.8,139.3l0.2,0.6l0.2-0.6c2-5.6,4.5-11.8,7.1-18.5c2.7-7.1,5.3-13.9,8-20.3c2.7-6.6,5.2-12.4,7.7-17.5
	c2.4-5.2,4.4-8.8,6-10.7c2.4-2.9,5.5-4.3,9.5-4.3h1.8c2.4,0,4.3,0.6,5.7,1.8c1.3,1.1,2.1,2.4,2.3,3.9l11.3,87.6
	c0,2.3-0.6,4-1.9,5.3c-1.3,1.2-3.1,1.8-5.5,1.8c-2.4,0-4.3-0.6-5.7-1.7c-1.5-1.1-2.4-2.6-2.6-4.4c-0.4-2.9-0.7-6.1-1.1-9.7
	c-0.5-3.5-2.3-18.8-2.8-22.7c-0.5-4-3.6-28.7-4.7-37.7l-0.1-0.8l-3.6,7.6c-1.2,2.6-2.6,5.7-4,9.4c-1.4,3.7-2.9,7.5-4.4,11.6
	c-1.6,4-8.6,23.9-8.6,23.9c-0.6,1.8-1.9,5.5-3,8.8c-1.1,3.3-2.2,6.4-2.4,6.9c-1.7,3.3-4.9,5.5-9,5.5c-4.2,0-7.4-2.2-9.1-5.5
	c-0.3-0.6-1.3-3.6-2.5-6.9c-1.1-3.4-2.3-7-3-8.8c0,0-7-20-8.6-23.9c-1.5-4.1-2.9-7.9-4.4-11.6s-2.8-6.8-4-9.4l-3.6-7.6l-0.1,0.8
	c-1.1,9-4.3,33.7-4.7,37.7c-0.5,3.9-2.3,19.1-2.7,22.7c-0.4,3.6-0.7,6.8-1.1,9.7c-0.2,1.8-1.1,3.3-2.6,4.4
	c-1.4,1.1-3.3,1.7-5.7,1.7c-2.4,0-4.2-0.6-5.5-1.8c-1.3-1.3-1.9-3.1-1.9-5.3l11.3-87.6c0.2-1.5,1-2.8,2.3-3.9
	c1.4-1.2,3.3-1.8,5.7-1.8h1.8c3.9,0,7.1,1.4,9.5,4.3c1.6,2,3.6,5.5,6,10.7c2.4,5.1,5,10.9,7.7,17.5c2.7,6.5,5.3,13.2,8,20.3
	C93.3,127.5,95.7,133.7,97.8,139.3"/>
<path class="st0" d="M75.6,14.8H213c12.9,0,19.4,9.7,20.9,22.5l0.6,4.1c0.5,4.4-2.8,8.3-7.1,8.8c-4.3,0.5-8.2-2.7-8.7-7.1
	l-0.5-3.9c-0.6-4.9-2.6-8.6-7.6-8.6H78c-5,0-7,3.8-7.6,8.6l-0.5,3.9c-0.4,4.4-4.3,7.6-8.7,7.1c-4.3-0.5-7.6-4.4-7.1-8.8l0.6-4.1
	C56.2,24.5,62.7,14.8,75.6,14.8"/>
<path d="M322.7,107.1c-0.9,3.7-1.9,7.6-3,11.8c-1,4.2-2.1,8.1-3.1,11.9c-1,3.8-1.9,7.1-2.9,10c-0.9,2.9-1.7,4.8-2.3,5.9
	c-1.1,1.9-2.9,2.8-5.6,2.8c-0.7,0-1.7-0.2-2.9-0.5c-1.2-0.3-2.2-1.1-3-2.5c-0.6-1.1-1.3-3.1-2.3-6.2c-0.9-3.1-1.8-6.6-2.9-10.6
	c-1-4-2-8.2-3-12.7c-1-4.5-1.9-8.6-2.7-12.5c-0.8-3.8-1.5-7.1-2-9.8c-0.5-2.7-0.8-4.3-0.9-4.9c-0.1-0.3-0.1-0.6-0.1-0.7v-0.4
	c0-1.1,0.4-2.1,1.3-2.8c0.9-0.7,1.9-1,3.2-1c1.2,0,2.2,0.3,2.9,0.8c0.7,0.5,1.3,1.4,1.6,2.6c0,0.1,0.2,1.1,0.5,2.9
	c0.4,1.8,0.8,4.1,1.4,6.9c0.6,2.8,1.2,5.9,1.9,9.4c0.7,3.5,1.4,7,2.2,10.6c0.8,3.6,1.5,7,2.3,10.3c0.8,3.3,1.5,6.2,2.2,8.6
	c0.7-2.3,1.4-4.8,2.2-7.8c0.8-2.9,1.6-5.9,2.4-9c0.8-3.1,1.6-6.2,2.3-9.3c0.7-3.1,1.4-6,2.1-8.7c0.6-2.7,1.2-5,1.6-7.1
	c0.5-2.1,0.8-3.6,1.1-4.6c0.3-1.3,1-2.3,1.9-3c1-0.7,2.1-1.1,3.4-1.1c1.5,0,2.7,0.4,3.6,1.2c0.9,0.8,1.5,1.8,1.8,2.9
	c0.7,3.3,1.5,6.9,2.4,11c0.9,4,1.8,8.1,2.7,12.2c0.9,4.1,1.9,8.2,2.9,12.2c1,4,2,7.5,2.9,10.5c0.7-2.4,1.4-5.3,2.2-8.6
	c0.8-3.4,1.5-6.8,2.3-10.3c0.8-3.5,1.6-7,2.3-10.5c0.7-3.5,1.4-6.6,2-9.4c0.6-2.8,1.1-5,1.4-6.7c0.4-1.7,0.5-2.6,0.5-2.7
	c0.3-1.3,0.9-2.2,1.6-2.6c0.7-0.5,1.7-0.8,2.9-0.8c1.3,0,2.3,0.3,3.2,1c0.9,0.7,1.3,1.6,1.3,2.8v0.4c0,0.1,0,0.4-0.1,0.7
	c-0.1,0.5-0.4,2.1-1,4.9c-0.5,2.7-1.2,6-2,9.8c-0.8,3.9-1.7,8-2.7,12.4c-1,4.4-2,8.7-2.9,12.6c-1,4-1.9,7.5-2.8,10.6
	c-0.9,3-1.7,5.1-2.3,6.1c-0.8,1.4-1.8,2.3-3.1,2.7c-1.2,0.4-2.2,0.5-3,0.5c-0.3,0-0.7,0-1.2-0.1c-0.5-0.1-1.1-0.2-1.7-0.4
	c-0.6-0.2-1.2-0.5-1.8-0.9c-0.6-0.4-1.1-1-1.4-1.8c-0.6-1.3-1.3-3.4-2.2-6.3c-0.8-2.9-1.7-6.2-2.7-9.9c-1-3.7-1.9-7.6-2.9-11.6
	C324.3,114.4,323.5,110.6,322.7,107.1"/>
<path d="M375.1,131c-1,3.2-1.9,6.2-2.7,8.9c-0.8,2.7-1.5,5-2.2,6.7c-0.7,1.9-2.2,2.9-4.4,2.9c-1.5,0-2.7-0.4-3.4-1.1
	c-0.7-0.8-1-1.8-1-3c0-0.5,0.1-0.9,0.2-1.3c0.1-0.4,0.5-1.8,1.3-4.1c0.7-2.3,1.6-5.2,2.8-8.7c1.1-3.5,2.4-7.3,3.8-11.4
	c1.4-4.1,2.8-8.2,4.3-12.3c1.5-4,2.9-7.8,4.3-11.3c1.4-3.5,2.7-6.3,3.9-8.5c0.5-1.1,1.3-1.9,2.2-2.3c0.9-0.4,2.1-0.6,3.7-0.6
	c1.5,0,2.7,0.2,3.8,0.7c1,0.5,1.8,1.3,2.2,2.4c0.9,2,2.1,4.7,3.4,8c1.3,3.4,2.7,7,4.1,10.9c1.4,3.9,2.9,7.9,4.3,11.9
	c1.4,4.1,2.7,7.9,3.9,11.4c1.2,3.5,2.2,6.5,3,9c0.8,2.5,1.4,4.1,1.6,4.8c0.1,0.4,0.2,0.8,0.2,1.3c0,1.2-0.4,2.2-1.2,3
	c-0.8,0.8-2,1.1-3.5,1.1c-1.1,0-2-0.3-2.6-0.8c-0.5-0.5-1-1.2-1.3-2.1c-0.7-1.7-1.5-4-2.4-6.7c-0.9-2.7-1.9-5.7-2.9-8.9H375.1z
	 M397.4,122.3c-1.4-4.3-2.7-8.3-4-11.9c-1.3-3.6-2.6-7.1-3.9-10.4c-0.3-0.7-0.7-1.6-1-2.6c-0.4-0.9-0.6-1.5-0.6-1.7
	c-0.1,0-0.3,0.6-0.6,1.6c-0.4,1-0.7,1.9-1.1,2.6c-1.3,3.3-2.6,6.7-3.9,10.4c-1.2,3.6-2.6,7.6-4,11.9H397.4z"/>
<path d="M431.4,124.3c-0.3-0.3-0.6-0.7-0.9-1.1c-0.3-0.4-0.6-0.9-1-1.4c-0.9-1.3-1.9-2.9-3.1-4.8c-1.1-1.9-2.2-3.9-3.3-6
	c-1.1-2.1-2.2-4.3-3.2-6.5c-1-2.2-2-4.2-2.8-6c-0.8-1.9-1.6-3.5-2.2-4.8c-0.6-1.4-1-2.3-1.1-2.9c-0.1-0.3-0.2-0.6-0.2-0.7
	c0-0.2-0.1-0.4-0.1-0.7c0-1.2,0.4-2.2,1.2-3c0.8-0.8,2-1.2,3.5-1.2c1.3,0,2.3,0.3,2.9,1c0.6,0.7,1,1.3,1.2,2
	c0.1,0.3,0.5,1.1,1,2.2c0.5,1.1,1.1,2.5,1.8,4.2c0.7,1.7,1.6,3.5,2.5,5.5c1,2,1.9,4,2.9,5.9c1,1.9,1.9,3.8,2.8,5.5
	c0.9,1.8,1.8,3.2,2.6,4.4c1.3-1.9,2.6-4.4,4.1-7.3c1.5-2.9,2.9-5.8,4.2-8.7c1.3-2.9,2.5-5.4,3.5-7.6c1-2.2,1.5-3.6,1.8-4.1
	c0.3-0.7,0.7-1.3,1.2-2c0.6-0.7,1.5-1,2.9-1c1.5,0,2.6,0.4,3.5,1.2c0.8,0.8,1.2,1.8,1.2,3c0,0.3,0,0.6-0.1,0.7s-0.1,0.4-0.2,0.7
	c-0.2,0.5-0.6,1.5-1.2,2.9c-0.6,1.4-1.3,3-2.1,4.9c-0.8,1.9-1.8,3.9-2.8,6c-1,2.2-2.1,4.3-3.2,6.5c-1.1,2.1-2.2,4.2-3.3,6.1
	c-1.1,1.9-2.1,3.6-3.1,4.9c-0.6,0.9-1.2,1.6-1.9,2.3V145c0,1.3-0.4,2.4-1.3,3.3c-0.8,0.8-1.9,1.2-3.3,1.2c-1.3,0-2.4-0.4-3.3-1.2
	c-0.8-0.8-1.3-1.9-1.3-3.3V124.3z"/>
</g>
</svg>
