<svg version="1.2" baseProfile="tiny" xmlns="http://www.w3.org/2000/svg" xmlns:xlink="http://www.w3.org/1999/xlink" viewBox="-14 6 30 30" xml:space="preserve">
<path d="M11.8,16.5c0,0-0.2-1.6-0.9-2.3c-0.8-0.9-1.8-0.9-2.2-1C5.6,13,1,13,1,13l0,0c0,0-4.6,0-7.7,0.2
c-0.4,0.1-1.4,0.1-2.2,1c-0.7,0.7-0.9,2.3-0.9,2.3s-0.2,1.8-0.2,3.6v1.7c0,1.8,0.2,3.7,0.2,3.7s0.2,1.6,0.9,2.3
c0.8,0.9,1.9,0.9,2.4,1C-4.7,28.9,1,29,1,29s4.6,0,7.7-0.2c0.4-0.1,1.4-0.1,2.2-1c0.7-0.7,0.9-2.3,0.9-2.3s0.2-1.8,0.2-3.7v-1.7
C12,18.3,11.8,16.5,11.8,16.5z M-1.3,24v-6.4l5.9,3.2L-1.3,24z"/>
</svg>