<svg xmlns="http://www.w3.org/2000/svg" xmlns:xlink="http://www.w3.org/1999/xlink" x="0" y="0" viewBox="0 0 1024 1024">
<path fill="#E53624" d="M496.4,622.2c5.8,0,56.1,1.6,56.1,58.3c0,15.5-19,54.4-55.5,103.9c-32.6-43.4-53.2-83.8-53.2-106.1 C443.7,636,482.9,622.2,496.4,622.2L496.4,622.2z M774.7,82.5c-50.5,0-80.5,45-109.5,88.5c-36.1,54.2-73.5,109.9-147.3,113.1 c-3.1-0.8-6.2-1.1-9.4-1.1c-89.8,0-142.6-76.8-181.2-132.9c-27.5-40.1-47.4-69-82-69C168.5,81.1,50,273.8,50,530 c0,175,68.9,312.1,189,376.2c19.7,10.5,44.2,3.1,54.6-16.6c0,0,0,0,0,0c10.5-19.7,3-44.1-16.6-54.7 C184.1,785.2,130.8,674.1,130.8,530C130.8,327.9,207,204,242,169.5c5.9,7.8,12.9,18,18.7,26.4c42.3,61.5,112.5,163.4,239.4,167.7 c3.6,1,7.4,1.6,11.4,1.6c121.4,0,181.3-89.9,221-149.3c11.1-16.7,28.9-43.5,39-50.8c30.8,23.8,117.8,150.5,117.8,366.3 c0,157.7-76.5,327.3-244.3,330.6v-1c-39.3,0-68.4-9.9-88.8-20.9c38.9-51.1,77.1-113.1,77.1-159.6c0-56.3-26-89.5-47.8-107.5 c-25.2-20.4-56.7-31.6-89.1-31.7c-28.6,0-60.3,12.1-84.8,32.3c-31.4,25.8-48.7,63-48.7,104.7c0,66.2,61.1,147.2,97.6,189.6l0.6-0.5 c18,19.9,71.9,68.9,167.7,74c3.5,1,7.3,1.6,11.2,1.6c159,0,330-128.8,330-411.6C970,275.2,851.5,82.4,774.7,82.5L774.7,82.5z"/>
</svg>