<svg xmlns="http://www.w3.org/2000/svg" xmlns:xlink="http://www.w3.org/1999/xlink" x="0" y="0" width="1024" height="1024" viewBox="-704 -99 1024 1024">
<title>Animais de Rua</title>
<path fill="#E53625" d="M-205.64,523.18c5.75,0,56.09,1.6,56.09,58.32c0,15.52-18.99,54.44-55.53,103.91,c-32.65-43.43-53.24-83.8-53.24-106.14c0-42.28,39.21-56.09,52.7-56.09H-205.64z M72.67-16.53c-50.5,0-80.47,44.96-109.47,88.47,c-36.08,54.16-73.49,109.92-147.31,113.07c-3.06-0.76-6.2-1.13-9.36-1.15c-89.81,0-142.65-76.8-181.23-132.86,c-27.51-40.07-47.41-68.97-81.96-68.97C-533.5-17.94-652,174.81-652,430.95c0,175,68.92,312.1,189.03,376.17,c19.68,10.5,44.16,3.07,54.65-16.62c0.01,0,0.01-0.03,0.02-0.05c10.48-19.7,3.03-44.14-16.65-54.67,c-92.93-49.58-146.23-160.69-146.23-304.83c0-202.07,76.21-325.93,111.2-360.49c5.91,7.8,12.94,18.02,18.69,26.36,c42.26,61.47,112.46,163.36,239.43,167.72c3.61,1.05,7.41,1.62,11.36,1.62c121.4,0,181.31-89.87,220.95-149.33,c11.14-16.7,28.94-43.46,38.97-50.76C100.21,89.91,187.2,216.53,187.2,432.37c0,157.72-76.53,327.25-244.25,330.59v-0.98,c-39.29,0-68.41-9.89-88.77-20.87c38.92-51.13,77.07-113.13,77.07-159.61c0-56.33-26-89.55-47.8-107.54,c-25.22-20.41-56.65-31.57-89.06-31.67c-28.58,0-60.32,12.08-84.82,32.25c-31.41,25.84-48.73,63.02-48.73,104.73,c0,66.23,61.15,147.24,97.62,189.65l0.59-0.52c18.01,19.9,71.85,68.91,167.74,73.95c3.52,1.05,7.26,1.63,11.16,1.63,C96.9,843.97,268,715.16,268,432.37C268,176.22,149.53-16.55,72.67-16.55V-16.53z"/>
</svg>
