<svg xmlns="http://www.w3.org/2000/svg" xmlns:xlink="http://www.w3.org/1999/xlink" x="0" y="0" width="1024" height="150" viewBox="-704 338 1024 150">
<title>Animais de Rua</title>
<path fill="#E53625" d="M-152.2,436.6c-2.6,0-3.7-2-3.7-4.8V411c0-7.7-2.2-13.2-6.8-16.9c-4.9-4-12.2-5.8-20.4-5.8,c-8.9,0-16.4,2.2-21.4,4.7v16.3c4.8-2.6,11-4.8,17.9-4.8c4.5,0,7.7,1,9.4,2.6c1.4,1.2,2.4,3.5,2.4,6.5v2.4c-3.4-0.7-7-1.1-10.6-1.1,c-6.3,0-12.4,1.1-17.1,4.3c-4.3,3-7.4,8.1-7.4,14.8c0,6.3,2.7,11.2,7.2,14.3c4,2.7,8.9,4,14.2,4c7,0,13-2.2,17-5.1h0.2,c3.4,3.5,8.2,4.8,13.2,4.8c3.6,0,7-0.7,9.1-1.9v-14.2C-150.1,436.4-151.2,436.6-152.2,436.6z M-174.8,435.7L-174.8,435.7,c-2.2,1.4-5.3,2.5-8.6,2.5c-4.4,0-7.8-2.1-7.8-6.1c0-4.7,4.8-6.2,9.7-6.2c2,0,4.7,0.3,6.7,0.9V435.7z M-434.9,431.8V411,c0-7.7-2.2-13.2-6.8-16.9c-4.8-4-12.2-5.8-20.4-5.8c-8.9,0-16.4,2.2-21.4,4.7v16.3c4.8-2.6,11-4.8,17.9-4.8c4.5,0,7.7,1,9.4,2.6,c1.4,1.2,2.4,3.5,2.4,6.5v2.4c-3.4-0.7-7-1.1-10.6-1.1c-6.3,0-12.4,1.1-17.1,4.3c-4.3,3-7.4,8.1-7.4,14.8c0,6.3,2.7,11.2,7.2,14.3,c4,2.7,8.9,4,14.2,4c7,0,13-2.2,17-5.1h0.2c3.4,3.5,8.2,4.8,13.2,4.8c3.6,0,7-0.7,9.1-1.9v-14.2c-1,0.5-2.1,0.7-3.1,0.7,C-433.8,436.6-434.9,434.6-434.9,431.8z M-453.8,435.7L-453.8,435.7c-2.2,1.4-5.3,2.5-8.6,2.5c-4.3,0-7.8-2.1-7.8-6.1,c0-4.7,4.8-6.2,9.7-6.2c2,0,4.7,0.3,6.7,0.9V435.7z M105.8,425.2c0.2-1.6,0.4-4.3,0.4-6.5c0-20.5-14.2-30.4-29.2-30.4,c-16.9,0-32,12.7-32,32.2c0,19.1,14.5,31.7,34.6,31.7c8.1,0,17.3-1.9,23.2-5.6v-15.8c-6.5,4.3-13.9,6.7-20.7,6.7,c-8.7,0-15.6-3.9-17.8-12.3v0H105.8z M64.2,413.3c1.6-7,6.7-10.6,12.5-10.6c6.1,0,10.9,4,12,10.6H64.2z M316.7,436.6,c-2.6,0-3.7-2-3.7-4.8V411c0-7.7-2.2-13.2-6.8-16.9c-4.8-4-12.2-5.8-20.4-5.8c-8.9,0-16.4,2.2-21.4,4.7v16.3,c4.8-2.6,11-4.8,17.9-4.8c4.5,0,7.7,1,9.4,2.6c1.4,1.2,2.4,3.5,2.4,6.5v2.4c-3.3-0.7-7-1.1-10.6-1.1c-6.3,0-12.4,1.1-17.1,4.3,c-4.3,3-7.4,8.1-7.4,14.8c0,6.3,2.7,11.2,7.2,14.3c4,2.7,8.9,4,14.2,4c7,0,13-2.2,17-5.1h0.2c3.4,3.5,8.2,4.8,13.2,4.8,c3.6,0,7-0.7,9.1-1.9v-14.2C318.8,436.4,317.6,436.6,316.7,436.6z M294.1,435.7L294.1,435.7c-2.2,1.4-5.3,2.5-8.6,2.5,c-4.3,0-7.8-2.1-7.8-6.1c0-4.7,4.8-6.2,9.7-6.2c2,0,4.7,0.3,6.7,0.9V435.7z M16.8,355.9v34.5l-0.3,0.1c-3.2-1.4-6.9-2.2-11.5-2.2,c-18.3,0-32.3,13.9-32.3,33.2c0,18.8,13.3,30.7,28.7,30.7c6,0,11.4-1.9,15.5-4.7l0.2,0.1v3.2h18.5v-94.9H16.8z M16.8,433.6,c-2.7,1.7-6.5,3.1-10.6,3.1h0c-9.3,0-14.5-7.1-14.5-16.2c0-9.2,5.3-16.6,15.3-16.6c3.4,0,6.8,0.8,9.8,2.4V433.6z M-328.4,370.3,c0,6-5,10.8-10.9,10.8c-6,0-10.9-4.8-10.9-10.8c0-6,5-10.8,10.9-10.8C-333.3,359.5-328.4,364.3-328.4,370.3z M-348.7,389.6h18.9,v61.1h-18.9V389.6z M-224.4,394.4c3.9,4,5.6,9.3,5.6,18v38.4h-18.9v-35.3c0-4.6-0.7-6.7-2.2-8.3c-1.7-1.9-4-2.6-6.5-2.6,c-4.3,0-8.8,2.2-12,5.1c0.1,0.9,0.1,1.9,0.1,2.7v38.4h-18.9v-35.3c0-4.1-0.6-6.6-2.2-8.3c-1.7-1.9-4-2.6-6.5-2.6,c-4.3,0-8.8,2.4-11.9,5v41.2h-18.9v-61.1h18.6v5.5l0.2,0.1c4.7-4,10.9-7,18.4-7c6.6,0,14.2,2.6,17.8,8.7c6.6-5.8,13.8-8.7,21.5-8.7,C-233.4,388.3-228,390.6-224.4,394.4z M-367,394.5c3.7,4,5.3,9.3,5.3,18.1v38.1h-18.9v-35c0-4.6-0.6-6.8-2.1-8.6,c-1.6-1.9-3.9-2.6-6.5-2.6c-4.8,0-9.4,2.5-12.8,5.1v41.1h-18.9v-61.1h18.6v5.6l0.2,0.1c4.7-3.9,11.2-7.1,18.9-7.1,C-376.5,388.3-370.8,390.5-367,394.5z M179.5,388.9c1.2,0,2.6,0.1,4,0.5v17.8c-1.7-0.4-3.4-0.6-5.1-0.6c-6.6,0-12,2-16.5,7.2v37H143,v-61.1h18.5v8.2l0.2,0.1C165.9,392,171.9,388.9,179.5,388.9z M249.5,389.6v61.1h-18.6v-5.7l-0.2-0.1c-4.7,4.1-10.7,7.2-18.6,7.2,c-7.1,0-12.4-2.5-15.9-6.1c-4-4.1-5.8-9.7-5.8-18.8v-37.6h18.9v34.8c0,4.5,0.7,7.1,2.4,8.8c1.6,1.9,4.1,2.7,6.7,2.7,c4.7,0,9.4-2.6,12.4-5.5v-40.9H249.5z M-141.7,389.6h18.9v61.1h-18.9V389.6z M-59.9,431.4c-0.1,13.4-11.8,20.7-27.4,20.7,c-7.3,0-16.6-1.5-23.8-5v-16.5v0c8.3,4.8,18,7,23.8,7c5.2,0,8.3-1.4,8.3-4.7c0-4.7-6.8-4.2-16-6.6c-11.5-2.9-18.4-7.7-18.4-17.8,c0.1-12.9,11.5-20.2,26.7-20.2c7.3,0,16.4,1.5,23.3,4.8v16.3c-8.1-4.6-17.5-6.6-23-6.6c-5,0-7.9,1.5-7.9,4.3c0,4.5,6.6,4.1,15.6,6.3,C-67,416.4-59.9,420.8-59.9,431.4z M-121.4,370.3c0,6-5,10.8-10.9,10.8c-6,0-10.9-4.8-10.9-10.8c0-6,5-10.8,10.9-10.8,C-126.4,359.5-121.4,364.3-121.4,370.3z M-581.9,340.7L-581.9,340.7c-8.5,0-13.5,7.6-18.4,14.9c-6.1,9.1-12.3,18.5-24.7,19,c-0.5-0.1-1-0.2-1.6-0.2c-15.1,0-23.9-12.9-30.4-22.3c-4.6-6.7-8-11.6-13.8-11.6c-12.9,0-32.8,32.4-32.8,75.4,c0,29.4,11.6,52.4,31.7,63.2c3.3,1.8,7.4,0.5,9.2-2.8c0,0,0,0,0,0c1.8-3.3,0.5-7.4-2.8-9.2c-15.6-8.3-24.6-27-24.6-51.2,c0-33.9,12.8-54.7,18.7-60.5c1,1.3,2.2,3,3.1,4.4c7.1,10.3,18.9,27.4,40.2,28.2c0.6,0.2,1.2,0.3,1.9,0.3c20.4,0,30.4-15.1,37.1-25.1,c1.9-2.8,4.9-7.3,6.5-8.5c5.2,4,19.8,25.3,19.8,61.5c0,26.5-12.8,54.9-41,55.5v-0.2c-6.6,0-11.5-1.7-14.9-3.5,c6.5-8.6,12.9-19,12.9-26.8c0-9.5-4.4-15-8-18.1c-4.2-3.4-9.5-5.3-15-5.3c-4.8,0-10.1,2-14.2,5.4c-5.3,4.3-8.2,10.6-8.2,17.6,c0,11.1,10.3,24.7,16.4,31.8l0.1-0.1c3,3.3,12.1,11.6,28.2,12.4c0.6,0.2,1.2,0.3,1.9,0.3c26.7,0,55.4-21.6,55.4-69.1,C-549.1,373.1-569,340.7-581.9,340.7z M-628.5,458.5c-5.5-7.3-8.9-14.1-8.9-17.8c0-7.1,6.6-9.4,8.8-9.4c1,0,9.4,0.3,9.4,9.8,C-619.2,443.7-622.4,450.2-628.5,458.5z"/>
</svg>