<svg xmlns="http://www.w3.org/2000/svg" xmlns:xlink="http://www.w3.org/1999/xlink" x="0" y="0" viewBox="0 0 1024 150">
<path fill="#E53624" d="M551.8,97.6c-2.6,0-3.7-2-3.7-4.8V72c0-7.7-2.2-13.2-6.8-16.9c-4.9-4-12.2-5.8-20.4-5.8 c-8.9,0-16.4,2.2-21.4,4.7v16.3c4.8-2.6,11-4.8,17.9-4.8c4.5,0,7.7,1,9.4,2.6c1.4,1.2,2.4,3.5,2.4,6.5V77c-3.4-0.7-7-1.1-10.6-1.1 c-6.3,0-12.4,1.1-17.1,4.3c-4.3,3-7.4,8.1-7.4,14.8c0,6.3,2.7,11.2,7.2,14.3c4,2.7,8.9,4,14.2,4c7,0,13-2.2,17-5.1h0.2 c3.4,3.5,8.2,4.8,13.2,4.8c3.6,0,7-0.7,9.1-1.9V96.9C553.9,97.4,552.8,97.6,551.8,97.6z M529.2,96.7L529.2,96.7 c-2.2,1.4-5.3,2.5-8.6,2.5c-4.4,0-7.8-2.1-7.8-6.1c0-4.7,4.8-6.2,9.7-6.2c2,0,4.7,0.3,6.7,0.9L529.2,96.7L529.2,96.7z M269.1,92.8 V72c0-7.7-2.2-13.2-6.8-16.9c-4.8-4-12.2-5.8-20.4-5.8c-8.9,0-16.4,2.2-21.4,4.7v16.3c4.8-2.6,11-4.8,17.9-4.8c4.5,0,7.7,1,9.4,2.6 c1.4,1.2,2.4,3.5,2.4,6.5V77c-3.4-0.7-7-1.1-10.6-1.1c-6.3,0-12.4,1.1-17.1,4.3c-4.3,3-7.4,8.1-7.4,14.8c0,6.3,2.7,11.2,7.2,14.3 c4,2.7,8.9,4,14.2,4c7,0,13-2.2,17-5.1h0.2c3.4,3.5,8.2,4.8,13.2,4.8c3.6,0,7-0.7,9.1-1.9V96.9c-1,0.5-2.1,0.7-3.1,0.7 C270.2,97.6,269.1,95.6,269.1,92.8z M250.2,96.7L250.2,96.7c-2.2,1.4-5.3,2.5-8.6,2.5c-4.3,0-7.8-2.1-7.8-6.1c0-4.7,4.8-6.2,9.7-6.2 c2,0,4.7,0.3,6.7,0.9L250.2,96.7L250.2,96.7z M809.8,86.2c0.2-1.6,0.4-4.3,0.4-6.5c0-20.5-14.2-30.4-29.2-30.4 c-16.9,0-32,12.7-32,32.2c0,19.1,14.5,31.7,34.6,31.7c8.1,0,17.3-1.9,23.2-5.6V91.8c-6.5,4.3-13.9,6.7-20.7,6.7 c-8.7,0-15.6-3.9-17.8-12.3l0,0L809.8,86.2L809.8,86.2z M768.2,74.3c1.6-7,6.7-10.6,12.5-10.6c6.1,0,10.9,4,12,10.6H768.2z  M1020.7,97.6c-2.6,0-3.7-2-3.7-4.8V72c0-7.7-2.2-13.2-6.8-16.9c-4.8-4-12.2-5.8-20.4-5.8c-8.9,0-16.4,2.2-21.4,4.7v16.3 c4.8-2.6,11-4.8,17.9-4.8c4.5,0,7.7,1,9.4,2.6c1.4,1.2,2.4,3.5,2.4,6.5V77c-3.3-0.7-7-1.1-10.6-1.1c-6.3,0-12.4,1.1-17.1,4.3 c-4.3,3-7.4,8.1-7.4,14.8c0,6.3,2.7,11.2,7.2,14.3c4,2.7,8.9,4,14.2,4c7,0,13-2.2,17-5.1h0.2c3.4,3.5,8.2,4.8,13.2,4.8 c3.6,0,7-0.7,9.1-1.9V96.9C1022.8,97.4,1021.6,97.6,1020.7,97.6z M998.1,96.7L998.1,96.7c-2.2,1.4-5.3,2.5-8.6,2.5 c-4.3,0-7.8-2.1-7.8-6.1c0-4.7,4.8-6.2,9.7-6.2c2,0,4.7,0.3,6.7,0.9L998.1,96.7L998.1,96.7z M720.8,16.9v34.5l-0.3,0.1 c-3.2-1.4-6.9-2.2-11.5-2.2c-18.3,0-32.3,13.9-32.3,33.2c0,18.8,13.3,30.7,28.7,30.7c6,0,11.4-1.9,15.5-4.7l0.2,0.1v3.2h18.5V16.9 L720.8,16.9L720.8,16.9z M720.8,94.6c-2.7,1.7-6.5,3.1-10.6,3.1l0,0c-9.3,0-14.5-7.1-14.5-16.2c0-9.2,5.3-16.6,15.3-16.6 c3.4,0,6.8,0.8,9.8,2.4V94.6z M375.6,31.3c0,6-5,10.8-10.9,10.8c-6,0-10.9-4.8-10.9-10.8s5-10.8,10.9-10.8 C370.7,20.5,375.6,25.3,375.6,31.3z M355.3,50.6h18.9v61.1h-18.9V50.6z M479.6,55.4c3.9,4,5.6,9.3,5.6,18v38.4h-18.9V76.5 c0-4.6-0.7-6.7-2.2-8.3c-1.7-1.9-4-2.6-6.5-2.6c-4.3,0-8.8,2.2-12,5.1c0.1,0.9,0.1,1.9,0.1,2.7v38.4h-18.9V76.5 c0-4.1-0.6-6.6-2.2-8.3c-1.7-1.9-4-2.6-6.5-2.6c-4.3,0-8.8,2.4-11.9,5v41.2h-18.9V50.7h18.6v5.5l0.2,0.1c4.7-4,10.9-7,18.4-7 c6.6,0,14.2,2.6,17.8,8.7c6.6-5.8,13.8-8.7,21.5-8.7C470.6,49.3,476,51.6,479.6,55.4z M337,55.5c3.7,4,5.3,9.3,5.3,18.1v38.1h-18.9 v-35c0-4.6-0.6-6.8-2.1-8.6c-1.6-1.9-3.9-2.6-6.5-2.6c-4.8,0-9.4,2.5-12.8,5.1v41.1h-18.9V50.6h18.6v5.6l0.2,0.1 c4.7-3.9,11.2-7.1,18.9-7.1C327.5,49.3,333.2,51.5,337,55.5z M883.5,49.9c1.2,0,2.6,0.1,4,0.5v17.8c-1.7-0.4-3.4-0.6-5.1-0.6 c-6.6,0-12,2-16.5,7.2v37H847V50.7h18.5v8.2l0.2,0.1C869.9,53,875.9,49.9,883.5,49.9z M953.5,50.6v61.1h-18.6V106l-0.2-0.1 c-4.7,4.1-10.7,7.2-18.6,7.2c-7.1,0-12.4-2.5-15.9-6.1c-4-4.1-5.8-9.7-5.8-18.8V50.6h18.9v34.8c0,4.5,0.7,7.1,2.4,8.8 c1.6,1.9,4.1,2.7,6.7,2.7c4.7,0,9.4-2.6,12.4-5.5V50.5h18.7V50.6z M562.3,50.6h18.9v61.1h-18.9V50.6z M644.1,92.4 c-0.1,13.4-11.8,20.7-27.4,20.7c-7.3,0-16.6-1.5-23.8-5V91.6l0,0c8.3,4.8,18,7,23.8,7c5.2,0,8.3-1.4,8.3-4.7c0-4.7-6.8-4.2-16-6.6 c-11.5-2.9-18.4-7.7-18.4-17.8c0.1-12.9,11.5-20.2,26.7-20.2c7.3,0,16.4,1.5,23.3,4.8v16.3c-8.1-4.6-17.5-6.6-23-6.6 c-5,0-7.9,1.5-7.9,4.3c0,4.5,6.6,4.1,15.6,6.3C637,77.4,644.1,81.8,644.1,92.4z M582.6,31.3c0,6-5,10.8-10.9,10.8 c-6,0-10.9-4.8-10.9-10.8s5-10.8,10.9-10.8C577.6,20.5,582.6,25.3,582.6,31.3z M122.1,1.7L122.1,1.7c-8.5,0-13.5,7.6-18.4,14.9 c-6.1,9.1-12.3,18.5-24.7,19c-0.5-0.1-1-0.2-1.6-0.2c-15.1,0-23.9-12.9-30.4-22.3C42.4,6.4,39,1.5,33.2,1.5 C20.3,1.5,0.4,33.9,0.4,76.9c0,29.4,11.6,52.4,31.7,63.2c3.3,1.8,7.4,0.5,9.2-2.8l0,0c1.8-3.3,0.5-7.4-2.8-9.2 c-15.6-8.3-24.6-27-24.6-51.2c0-33.9,12.8-54.7,18.7-60.5c1,1.3,2.2,3,3.1,4.4C42.8,31.1,54.6,48.2,75.9,49c0.6,0.2,1.2,0.3,1.9,0.3 c20.4,0,30.4-15.1,37.1-25.1c1.9-2.8,4.9-7.3,6.5-8.5c5.2,4,19.8,25.3,19.8,61.5c0,26.5-12.8,54.9-41,55.5v-0.2 c-6.6,0-11.5-1.7-14.9-3.5c6.5-8.6,12.9-19,12.9-26.8c0-9.5-4.4-15-8-18.1c-4.2-3.4-9.5-5.3-15-5.3c-4.8,0-10.1,2-14.2,5.4 c-5.3,4.3-8.2,10.6-8.2,17.6c0,11.1,10.3,24.7,16.4,31.8l0.1-0.1c3,3.3,12.1,11.6,28.2,12.4c0.6,0.2,1.2,0.3,1.9,0.3 c26.7,0,55.4-21.6,55.4-69.1C154.9,34.1,135,1.7,122.1,1.7z M75.5,119.5c-5.5-7.3-8.9-14.1-8.9-17.8c0-7.1,6.6-9.4,8.8-9.4 c1,0,9.4,0.3,9.4,9.8C84.8,104.7,81.6,111.2,75.5,119.5z"/>
</svg>